<svg width="24" height="24" viewBox="0 0 24 24" fill="none" xmlns="http://www.w3.org/2000/svg">
<path d="M8.14969 18.7076L10.508 19.3304V18.516L10.7005 18.3244H12.0481V19.9532H10.6043L8.82349 19.1867L8.14969 18.7076Z" fill="#CDBDB2"/>
<path d="M15.8502 18.7076L13.5401 19.3304V18.516L13.3476 18.3244H12V19.9532H13.4438L15.2245 19.1867L15.8502 18.7076Z" fill="#CDBDB2"/>
<path d="M10.7006 16.9341L10.5081 18.515L10.7487 18.3233H13.2513L13.5401 18.515L13.3476 16.9341L12.9626 16.6945L11.0374 16.7425L10.7006 16.9341Z" fill="#393939"/>
<path d="M9.40103 6.25214L10.5561 8.93486L11.0856 16.7435H12.9625L13.5401 8.93486L14.5989 6.25214H9.40103Z" fill="#F89C35"/>
<path d="M4.3476 12.1439L3 16.0242L6.36899 15.8326H8.53473V14.1559L8.43847 10.7067L7.95719 11.0899L4.3476 12.1439Z" fill="#F89D35"/>
<path d="M6.89838 12.5755L10.8449 12.6713L10.4118 14.6834L8.53474 14.2043L6.89838 12.5755Z" fill="#D87C30"/>
<path d="M6.89838 12.6233L8.53474 14.1563V15.6893L6.89838 12.6233Z" fill="#EA8D3A"/>
<path d="M8.53467 14.2034L10.4598 14.6825L11.0855 16.7425L10.6523 16.9819L8.53467 15.7364V14.2034Z" fill="#F89D35"/>
<path d="M8.53472 15.7367L8.14969 18.7069L10.7005 16.9344L8.53472 15.7367Z" fill="#EB8F35"/>
<path d="M10.8448 12.6701L11.0855 16.7422L10.3636 14.6582L10.8448 12.6701Z" fill="#EA8E3A"/>
<path d="M6.32083 15.7847L8.53474 15.7367L8.14971 18.7069L6.32083 15.7847Z" fill="#D87C30"/>
<path d="M4.05883 20.0002L8.1497 18.7067L6.32082 15.7845L3 16.024L4.05883 20.0002Z" fill="#EB8F35"/>
<path d="M10.5561 8.93443L8.48666 10.659L6.89838 12.5753L10.8449 12.719L10.5561 8.93443Z" fill="#E8821E"/>
<path fill-rule="evenodd" clip-rule="evenodd" d="M10.7006 16.9354L8.14972 18.7079L8.77543 18.9954L10.5081 19.3307V18.4684L10.7006 16.9354ZM13.3476 16.9354L15.8503 18.7079L15.2727 18.9954L13.5401 19.3307V18.4684L13.3476 16.9354Z" fill="#DFCEC3"/>
<path d="M9.78604 13.5324L10.3155 14.6342L8.43845 14.1552L9.78604 13.5324Z" fill="#393939"/>
<path d="M4.01065 4L10.5561 8.93425L9.44921 6.25153L4.01065 4Z" fill="#E88F35"/>
<path d="M4.01067 4L3.14436 6.63477L3.62564 9.50911L3.28878 9.70074L3.77007 10.1319L3.38504 10.4672L3.91441 10.9463L3.57755 11.2337L4.34761 12.1918L7.9572 11.09C9.72191 9.68481 10.5882 8.96618 10.5561 8.93425C10.524 8.90231 8.34223 7.25759 4.01067 4Z" fill="#8E5A30"/>
<path d="M19.6524 12.1439L21 16.0242L17.631 15.8326H15.4653V14.1559L15.5615 10.7067L16.0428 11.0899L19.6524 12.1439Z" fill="#F89D35"/>
<path d="M17.1016 12.5755L13.1551 12.6713L13.5882 14.6834L15.4652 14.2043L17.1016 12.5755Z" fill="#D87C30"/>
<path d="M17.1016 12.6233L15.4653 14.1563V15.6893L17.1016 12.6233Z" fill="#EA8D3A"/>
<path d="M15.4652 14.2034L13.5401 14.6825L12.9144 16.7425L13.3476 16.9819L15.4652 15.7364V14.2034Z" fill="#F89D35"/>
<path d="M15.4652 15.7367L15.8503 18.7069L13.3476 16.9823L15.4652 15.7367Z" fill="#EB8F35"/>
<path d="M13.1551 12.6701L12.9144 16.7422L13.6363 14.6582L13.1551 12.6701Z" fill="#EA8E3A"/>
<path d="M17.6792 15.7847L15.4653 15.7367L15.8503 18.7069L17.6792 15.7847Z" fill="#D87C30"/>
<path d="M19.9411 20.0002L15.8502 18.7067L17.6791 15.7845L20.9999 16.024L19.9411 20.0002Z" fill="#EB8F35"/>
<path d="M13.4438 8.93443L15.5133 10.659L17.1016 12.5753L13.1551 12.719L13.4438 8.93443Z" fill="#E8821E"/>
<path d="M14.2139 13.5324L13.6844 14.6342L15.5615 14.1552L14.2139 13.5324Z" fill="#393939"/>
<path d="M19.9893 4L13.4438 8.93425L14.5507 6.25153L19.9893 4Z" fill="#E88F35"/>
<path d="M19.9893 4L20.8556 6.63477L20.3743 9.50911L20.7111 9.70074L20.2299 10.1319L20.6149 10.4672L20.0855 10.9463L20.4224 11.2337L19.6523 12.1918L16.0427 11.09C14.278 9.68481 13.4117 8.96618 13.4438 8.93425C13.4759 8.90231 15.6577 7.25759 19.9893 4Z" fill="#8E5A30"/>
</svg>
